<mxfile host="app.diagrams.net" modified="2024-01-14T13:15:56.198Z" agent="Mozilla/5.0 (Windows NT 10.0; Win64; x64) AppleWebKit/537.36 (KHTML, like Gecko) Chrome/120.0.0.0 Safari/537.36 OPR/106.0.0.0 (Edition Yx 05)" version="22.1.18" etag="zFyEFACp77BBV02xOEJU" type="github">
  <diagram name="Страница — 1" id="yYIaMIZ6cxQhBOnnz-Gr">
    <mxGraphModel>
      <root>
        <mxCell id="0" />
        <mxCell id="1" parent="0" />
      </root>
    </mxGraphModel>
  </diagram>
</mxfile>
